<svg version="1.1" id="Layer_1" xmlns="http://www.w3.org/2000/svg" xmlns:xlink="http://www.w3.org/1999/xlink" x="0px" y="0px"
	 width="100%" viewBox="0 0 244 244" enable-background="new 0 0 244 244" xml:space="preserve">
<path fill="#F2AB3A" opacity="1.000000" stroke="none" 
	d="
M116.000000,245.000000 
	C77.333336,245.000000 39.166672,245.000000 1.000005,245.000000 
	C1.000003,163.666672 1.000003,82.333351 1.000002,1.000016 
	C82.333321,1.000011 163.666641,1.000011 244.999969,1.000005 
	C244.999985,82.333321 244.999985,163.666641 245.000000,244.999969 
	C202.166672,245.000000 159.333328,245.000000 116.000000,245.000000 
M160.931732,107.347977 
	C156.954025,105.901344 152.976303,104.454712 149.000565,102.999184 
	C149.000565,102.999184 148.990372,103.002518 148.706055,102.389725 
	C142.566895,94.301422 136.419373,86.219452 130.292511,78.121841 
	C127.702820,74.699158 124.395821,73.051926 120.003288,73.087418 
	C106.185226,73.199051 92.365578,73.108101 78.546570,73.122902 
	C77.469925,73.124062 76.393517,73.337234 74.540085,73.534607 
	C77.755890,79.117355 82.058777,81.170586 87.572357,81.178215 
	C97.728622,81.192268 107.891563,80.998917 118.036041,81.347870 
	C120.293724,81.425537 123.157951,82.839226 124.593262,84.583694 
	C130.927673,92.282501 136.841949,100.326988 143.144531,108.921867 
	C142.387802,109.608849 141.655258,110.856186 140.870331,110.890076 
	C136.428787,111.081833 131.974716,110.982803 127.436653,110.982803 
	C127.010780,113.462227 126.685295,115.357201 126.311638,117.532593 
	C129.121078,117.782768 131.382355,117.984131 133.934982,118.211433 
	C132.650803,125.751740 131.407776,133.050369 130.110962,140.664734 
	C133.220139,140.664734 135.933975,140.664734 138.766296,140.664734 
	C139.621994,135.770599 140.391357,131.188339 141.229156,126.618614 
	C142.684723,118.679367 142.702454,118.682617 149.548370,117.503532 
	C151.284683,114.968544 152.659195,112.961777 154.459518,111.750610 
	C152.927277,121.335144 151.395050,130.919693 149.824982,140.740845 
	C156.036392,140.740845 161.764587,140.740845 167.668259,140.740845 
	C168.001083,138.627609 168.294724,136.763168 168.637054,134.589630 
	C165.398010,134.372574 162.823639,134.200058 159.673615,133.988968 
	C160.939026,126.554390 162.279770,119.604057 163.186172,112.597542 
	C163.375519,111.133942 161.961395,109.462906 160.931732,107.347977 
M107.881050,116.447311 
	C104.857552,110.158165 104.319534,109.928696 96.425415,111.760811 
	C94.768974,121.225029 93.091850,130.807404 91.353363,140.740387 
	C94.453217,140.740387 97.037453,140.740387 99.810532,140.740387 
	C100.796455,136.084854 101.752991,131.568069 102.709534,127.051285 
	C105.729477,130.891434 107.802429,134.661850 109.454788,138.608368 
	C110.944878,142.167313 113.859161,140.907623 116.279099,140.904129 
	C117.447289,140.902435 119.488045,139.936523 119.647263,139.118042 
	C121.436241,129.921631 122.935745,120.668900 124.558083,111.167557 
	C121.376968,111.167557 118.926956,111.167557 116.151093,111.167557 
	C115.166985,116.014755 114.202766,120.764015 112.962524,126.872841 
	C110.935783,122.743820 109.560036,119.941055 107.881050,116.447311 
M125.234215,92.049622 
	C124.845848,87.800919 121.726906,84.255844 118.061523,84.169350 
	C113.409012,84.059570 108.752014,84.139084 104.096947,84.138512 
	C97.540863,84.137711 90.984779,84.138313 83.429855,84.138313 
	C86.545387,89.731644 90.282867,92.146057 95.518379,92.165100 
	C105.160713,92.200165 114.803314,92.164024 125.234215,92.049622 
M123.460892,103.815407 
	C127.185097,103.815407 130.909302,103.815407 134.633514,103.815407 
	C134.840790,103.336906 135.048065,102.858414 135.255356,102.379913 
	C132.953781,100.204910 130.751663,96.289047 128.333740,96.150932 
	C116.775841,95.490723 105.159424,95.854904 92.882629,95.854904 
	C96.115326,101.565071 100.523659,103.667328 106.003571,103.780350 
	C111.491821,103.893539 116.984085,103.812111 123.460892,103.815407 
z"/>
<path fill="#FDF9F4" opacity="1.000000" stroke="none" 
	d="
M142.908386,108.246292 
	C136.841949,100.326988 130.927673,92.282501 124.593262,84.583694 
	C123.157951,82.839226 120.293724,81.425537 118.036041,81.347870 
	C107.891563,80.998917 97.728622,81.192268 87.572357,81.178215 
	C82.058777,81.170586 77.755890,79.117355 74.540085,73.534607 
	C76.393517,73.337234 77.469925,73.124062 78.546570,73.122902 
	C92.365578,73.108101 106.185226,73.199051 120.003288,73.087418 
	C124.395821,73.051926 127.702820,74.699158 130.292511,78.121841 
	C136.419373,86.219452 142.566895,94.301422 148.485931,102.722656 
	C146.479996,104.785828 144.694199,106.516060 142.908386,108.246292 
z"/>
<path fill="#FEFCF9" opacity="1.000000" stroke="none" 
	d="
M108.032669,116.792801 
	C109.560036,119.941055 110.935783,122.743820 112.962524,126.872841 
	C114.202766,120.764015 115.166985,116.014755 116.151093,111.167557 
	C118.926956,111.167557 121.376968,111.167557 124.558083,111.167557 
	C122.935745,120.668900 121.436241,129.921631 119.647263,139.118042 
	C119.488045,139.936523 117.447289,140.902435 116.279099,140.904129 
	C113.859161,140.907623 110.944878,142.167313 109.454788,138.608368 
	C107.802429,134.661850 105.729477,130.891434 102.709534,127.051285 
	C101.752991,131.568069 100.796455,136.084854 99.810532,140.740387 
	C97.037453,140.740387 94.453217,140.740387 91.353363,140.740387 
	C93.091850,130.807404 94.768974,121.225029 96.425415,111.760811 
	C104.319534,109.928696 104.857552,110.158165 108.032669,116.792801 
z"/>
<path fill="#FEFCF9" opacity="1.000000" stroke="none" 
	d="
M143.026459,108.584076 
	C144.694199,106.516060 146.479996,104.785828 148.628082,103.029053 
	C148.990372,103.002518 149.000565,102.999184 149.067291,103.346313 
	C150.778839,106.098267 152.423676,108.503082 154.058502,110.918701 
	C154.048477,110.929520 154.033722,110.955017 154.033722,110.955017 
	C152.659195,112.961777 151.284683,114.968544 149.548370,117.503532 
	C142.702454,118.682617 142.684723,118.679367 141.229156,126.618614 
	C140.391357,131.188339 139.621994,135.770599 138.766296,140.664734 
	C135.933975,140.664734 133.220139,140.664734 130.110962,140.664734 
	C131.407776,133.050369 132.650803,125.751740 133.934982,118.211433 
	C131.382355,117.984131 129.121078,117.782768 126.311638,117.532593 
	C126.685295,115.357201 127.010780,113.462227 127.436653,110.982803 
	C131.974716,110.982803 136.428787,111.081833 140.870331,110.890076 
	C141.655258,110.856186 142.387802,109.608849 143.026459,108.584076 
z"/>
<path fill="#FEFCF8" opacity="1.000000" stroke="none" 
	d="
M161.286179,107.887466 
	C161.961395,109.462906 163.375519,111.133942 163.186172,112.597542 
	C162.279770,119.604057 160.939026,126.554390 159.673615,133.988968 
	C162.823639,134.200058 165.398010,134.372574 168.637054,134.589630 
	C168.294724,136.763168 168.001083,138.627609 167.668259,140.740845 
	C161.764587,140.740845 156.036392,140.740845 149.824982,140.740845 
	C151.395050,130.919693 152.927277,121.335144 154.246613,111.352814 
	C154.033722,110.955017 154.048477,110.929520 154.418823,110.917641 
	C156.954834,109.899666 159.120499,108.893562 161.286179,107.887466 
z"/>
<path fill="#FDFAF4" opacity="1.000000" stroke="none" 
	d="
M124.840012,92.103592 
	C114.803314,92.164024 105.160713,92.200165 95.518379,92.165100 
	C90.282867,92.146057 86.545387,89.731644 83.429855,84.138313 
	C90.984779,84.138313 97.540863,84.137711 104.096947,84.138512 
	C108.752014,84.139084 113.409012,84.059570 118.061523,84.169350 
	C121.726906,84.255844 124.845848,87.800919 124.840012,92.103592 
z"/>
<path fill="#FDFAF4" opacity="1.000000" stroke="none" 
	d="
M122.967743,103.815704 
	C116.984085,103.812111 111.491821,103.893539 106.003571,103.780350 
	C100.523659,103.667328 96.115326,101.565071 92.882629,95.854904 
	C105.159424,95.854904 116.775841,95.490723 128.333740,96.150932 
	C130.751663,96.289047 132.953781,100.204910 135.255356,102.379913 
	C135.048065,102.858414 134.840790,103.336906 134.633514,103.815407 
	C130.909302,103.815407 127.185097,103.815407 122.967743,103.815704 
z"/>
<path fill="#FDF9F4" opacity="1.000000" stroke="none" 
	d="
M161.108948,107.617722 
	C159.120499,108.893562 156.954834,109.899666 154.428833,110.906830 
	C152.423676,108.503082 150.778839,106.098267 149.066299,103.350769 
	C152.976303,104.454712 156.954025,105.901344 161.108948,107.617722 
z"/>
</svg>